<svg width="40" height="41" viewBox="0 0 40 41" fill="none" xmlns="http://www.w3.org/2000/svg">
<rect x="6.10352e-05" y="0.47998" width="40" height="40" rx="20" fill="white" fill-opacity="0.05"/>
<rect x="0.500061" y="0.97998" width="39" height="39" rx="19.5" stroke="white" stroke-opacity="0.15"/>
<g clip-path="url(#clip0_1957_8280)">
<path d="M25.9534 19.5581C25.9111 19.6026 25.8601 19.6379 25.8037 19.6621C25.7473 19.6862 25.6866 19.6987 25.6252 19.6987C25.5639 19.6987 25.5031 19.6862 25.4467 19.6621C25.3903 19.6379 25.3394 19.6026 25.2971 19.5581L20.469 14.7378V27.355C20.469 27.4793 20.4196 27.5986 20.3317 27.6864C20.2438 27.7743 20.1246 27.8237 20.0002 27.8237C19.8759 27.8237 19.7566 27.7743 19.6688 27.6864C19.5809 27.5986 19.5315 27.4793 19.5315 27.355V14.7378L14.7034 19.5581C14.6163 19.6451 14.4983 19.694 14.3752 19.694C14.2522 19.694 14.1341 19.6451 14.0471 19.5581C13.9601 19.4711 13.9112 19.3531 13.9112 19.23C13.9112 19.1069 13.9601 18.9889 14.0471 18.9019L19.6721 13.2769C19.7144 13.2324 19.7653 13.197 19.8217 13.1729C19.8781 13.1487 19.9389 13.1362 20.0002 13.1362C20.0616 13.1362 20.1223 13.1487 20.1787 13.1729C20.2351 13.197 20.2861 13.2324 20.3284 13.2769L25.9534 18.9019C25.9978 18.9441 26.0331 18.9951 26.0573 19.0515C26.0815 19.1079 26.094 19.1686 26.094 19.23C26.094 19.2913 26.0815 19.3521 26.0573 19.4085C26.0331 19.4649 25.9978 19.5158 25.9534 19.5581Z" fill="white"/>
</g>
<defs>
<clipPath id="clip0_1957_8280">
<rect width="20" height="20" fill="white" transform="translate(10.0001 10.48)"/>
</clipPath>
</defs>
</svg>
