<svg width="41" height="41" viewBox="0 0 41 41" fill="none" xmlns="http://www.w3.org/2000/svg">
<path d="M22.2333 0C24.5013 0.00600363 25.6524 0.0180109 26.6463 0.0460278L27.0374 0.0600362C27.489 0.0760459 27.9345 0.0960579 28.4728 0.120072C30.6178 0.220133 32.0814 0.556336 33.3656 1.05064C34.6961 1.55894 35.817 2.24736 36.9379 3.35803C37.963 4.35843 38.7562 5.56854 39.2623 6.90417C39.7602 8.17894 40.0989 9.63182 40.1997 11.7631C40.2239 12.2954 40.2441 12.7377 40.2602 13.188L40.2723 13.5762C40.3025 14.5608 40.3146 15.7035 40.3187 17.9549L40.3207 19.4478V22.0693C40.3256 23.529 40.3102 24.9887 40.2743 26.448L40.2622 26.8362C40.2461 27.2865 40.2259 27.7288 40.2017 28.2611C40.1009 30.3924 39.7582 31.8432 39.2623 33.12C38.7576 34.4564 37.9642 35.6668 36.9379 36.6662C35.9298 37.6834 34.7108 38.4708 33.3656 38.9736C32.0814 39.4679 30.6178 39.8041 28.4728 39.9041C27.9944 39.9265 27.516 39.9465 27.0374 39.9642L26.6463 39.9762C25.6524 40.0042 24.5013 40.0182 22.2333 40.0222L20.7294 40.0242H18.0905C16.6194 40.0292 15.1482 40.0139 13.6775 39.9782L13.2864 39.9662C12.8079 39.9482 12.3294 39.9275 11.8511 39.9041C9.70607 39.8041 8.24247 39.4679 6.95628 38.9736C5.61096 38.472 4.3924 37.6845 3.38599 36.6662C2.35995 35.6661 1.56601 34.4559 1.05955 33.12C0.561604 31.8452 0.22292 30.3924 0.122122 28.2611C0.0996613 27.7862 0.0795013 27.3113 0.0616424 26.8362L0.0515628 26.448C0.0144125 24.9887 -0.0023891 23.529 0.00116322 22.0693V17.9549C-0.0044633 16.4952 0.0103221 15.0355 0.0455148 13.5762L0.0596266 13.188C0.0757544 12.7377 0.0959141 12.2954 0.120106 11.7631C0.220905 9.63182 0.559588 8.18094 1.05753 6.90417C1.56377 5.56717 2.35929 4.35668 3.388 3.35803C4.39416 2.34036 5.61191 1.55291 6.95628 1.05064C8.24247 0.556336 9.70405 0.220133 11.8511 0.120072C12.3873 0.0960579 12.8349 0.0760459 13.2864 0.0600362L13.6775 0.0480289C15.1476 0.012473 16.618 -0.00287113 18.0885 0.00200106L22.2333 0ZM20.1609 10.006C17.4876 10.006 14.9237 11.0603 13.0334 12.9368C11.143 14.8132 10.081 17.3583 10.081 20.0121C10.081 22.6659 11.143 25.2109 13.0334 27.0874C14.9237 28.9639 17.4876 30.0181 20.1609 30.0181C22.8343 30.0181 25.3981 28.9639 27.2885 27.0874C29.1788 25.2109 30.2408 22.6659 30.2408 20.0121C30.2408 17.3583 29.1788 14.8132 27.2885 12.9368C25.3981 11.0603 22.8343 10.006 20.1609 10.006ZM20.1609 14.0085C20.9551 14.0083 21.7416 14.1635 22.4754 14.4651C23.2093 14.7667 23.876 15.2088 24.4377 15.7662C24.9994 16.3236 25.445 16.9853 25.7491 17.7137C26.0532 18.442 26.2097 19.2227 26.2098 20.0111C26.21 20.7995 26.0537 21.5802 25.7499 22.3087C25.4461 23.0371 25.0007 23.699 24.4392 24.2566C23.8777 24.8142 23.211 25.2565 22.4773 25.5583C21.7436 25.8602 20.9572 26.0156 20.1629 26.0157C18.5589 26.0157 17.0206 25.3832 15.8864 24.2573C14.7522 23.1314 14.115 21.6044 14.115 20.0121C14.115 18.4198 14.7522 16.8928 15.8864 15.7669C17.0206 14.641 18.5589 14.0085 20.1629 14.0085M30.7468 7.00423C30.0785 7.00423 29.4375 7.26778 28.9649 7.73691C28.4923 8.20603 28.2268 8.8423 28.2268 9.50574C28.2268 10.1692 28.4923 10.8055 28.9649 11.2746C29.4375 11.7437 30.0785 12.0073 30.7468 12.0073C31.4151 12.0073 32.0561 11.7437 32.5287 11.2746C33.0013 10.8055 33.2668 10.1692 33.2668 9.50574C33.2668 8.8423 33.0013 8.20603 32.5287 7.73691C32.0561 7.26778 31.4151 7.00423 30.7468 7.00423Z" fill="#2D2C2A"/>
</svg>
