<svg width="41" height="41" viewBox="0 0 41 41" fill="none" xmlns="http://www.w3.org/2000/svg">
<path d="M6.082 0C2.90488 0 0.321777 2.56411 0.321777 5.71788V34.3073C0.321777 37.461 2.90488 40.0251 6.082 40.0251H34.8831C38.0602 40.0251 40.6433 37.461 40.6433 34.3073V5.71788C40.6433 2.56411 38.0602 0 34.8831 0H6.082ZM32.822 7.50471L23.4797 18.1007L34.4691 32.5204H25.8648L19.1325 23.7739L11.4192 32.5204H7.14404L17.1344 21.1829L6.59502 7.50471H15.4154L21.5086 15.5008L28.5469 7.50471H32.822ZM29.4199 29.9831L14.1283 9.90801H11.5812L27.0438 29.9831H29.4109H29.4199Z" fill="#2D2C2A"/>
</svg>
