<svg width="35" height="17" viewBox="0 0 35 17" fill="none" xmlns="http://www.w3.org/2000/svg">
<g clip-path="url(#clip0_44_815)">
<path d="M5.54259 7.14817H34.3146L34.3139 7.48425V9.58211H5.54259L9.12597 13.1628L9.2968 13.3342L9.53489 13.5715L9.2968 13.8094L9.12597 13.9801L8.22206 14.8835L8.05123 15.0549L7.81314 15.2922L7.57573 15.0543L7.40423 14.8835L1.29069 8.77348L1.11986 8.60275L0.882446 8.36547L1.11986 8.12752L1.29136 7.95679L7.4049 1.84673L7.57573 1.676L7.81314 1.43872L8.05123 1.676L8.22206 1.8474L9.12597 2.75013L9.2968 2.92154L9.53489 3.15881L9.2968 3.39676L9.12597 3.5675L5.54259 7.14884V7.14817Z" fill="#2D2C2A" stroke="#2D2C2A" stroke-width="0.672557"/>
</g>
<defs>
<clipPath id="clip0_44_815">
<rect width="35" height="15.46" fill="white" transform="translate(0 0.634033)"/>
</clipPath>
</defs>
</svg>
