<svg width="35" height="17" viewBox="0 0 35 17" fill="none" xmlns="http://www.w3.org/2000/svg">
<g clip-path="url(#clip0_44_818)">
<path d="M0.936637 9.59511H0.346558V7.11531H29.3497L25.6939 3.46378L25.5189 3.28974L25.2767 3.04717L25.5189 2.80529L25.6939 2.63056L26.6154 1.70963L26.7904 1.53558L27.0333 1.2937L27.2755 1.53558L27.4497 1.70963L33.6867 7.93825L33.861 8.1123L34.1039 8.35487L33.861 8.59675L33.6867 8.77148L27.4491 14.9994L27.2748 15.1735L27.0326 15.416L26.7897 15.1735L26.6154 14.9994L25.6932 14.0785L25.5183 13.9044L25.2761 13.6619L25.5183 13.4193L25.6932 13.2453L29.349 9.59443L0.935951 9.59511H0.936637Z" fill="#2D2C2A"/>
<path d="M0.936637 9.59511H0.346558V7.11531H29.3497L25.6939 3.46378L25.5189 3.28974L25.2767 3.04717L25.5189 2.80529L25.6939 2.63056L26.6154 1.70963L26.7904 1.53558L27.0333 1.2937L27.2755 1.53558L27.4497 1.70963L33.6867 7.93825L33.861 8.1123L34.1039 8.35487L33.861 8.59675L33.6867 8.77148L27.4491 14.9994L27.2748 15.1735L27.0326 15.416L26.7897 15.1735L26.6154 14.9994L25.6932 14.0785L25.5183 13.9044L25.276 13.6619L25.5183 13.4193L25.6932 13.2453L29.349 9.59442L0.935951 9.59511H0.936637ZM0.936637 9.59511V9.2525" stroke="#2D2C2A" stroke-width="0.686139"/>
</g>
<defs>
<clipPath id="clip0_44_818">
<rect width="35" height="15.76" fill="white" transform="translate(0 0.474121)"/>
</clipPath>
</defs>
</svg>
