<svg width="32" height="33" viewBox="0 0 32 33" fill="none" xmlns="http://www.w3.org/2000/svg">
<rect y="0.390137" width="32" height="32" rx="16" fill="white" fill-opacity="0.05"/>
<rect x="0.5" y="0.890137" width="31" height="31" rx="15.5" stroke="white" stroke-opacity="0.15"/>
<g clip-path="url(#clip0_1957_8239)">
<path d="M16 13.1558C15.3603 13.1558 14.735 13.3455 14.2031 13.7009C13.6712 14.0562 13.2566 14.5614 13.0118 15.1524C12.767 15.7434 12.703 16.3937 12.8278 17.0211C12.9526 17.6486 13.2606 18.2249 13.7129 18.6772C14.1653 19.1295 14.7416 19.4375 15.369 19.5623C15.9964 19.6871 16.6467 19.6231 17.2377 19.3783C17.8287 19.1335 18.3338 18.719 18.6893 18.1871C19.0447 17.6552 19.2344 17.0298 19.2344 16.3901C19.2344 15.5324 18.8936 14.7096 18.2871 14.1031C17.6805 13.4965 16.8578 13.1558 16 13.1558ZM16 18.7808C15.5272 18.7808 15.065 18.6406 14.6718 18.3779C14.2787 18.1152 13.9723 17.7418 13.7913 17.305C13.6104 16.8682 13.5631 16.3875 13.6553 15.9237C13.7476 15.46 13.9752 15.0341 14.3096 14.6997C14.6439 14.3654 15.0699 14.1377 15.5336 14.0454C15.9974 13.9532 16.478 14.0005 16.9149 14.1815C17.3517 14.3624 17.7251 14.6688 17.9877 15.062C18.2505 15.4551 18.3906 15.9173 18.3906 16.3901C18.3888 17.0236 18.1363 17.6306 17.6884 18.0785C17.2404 18.5264 16.6335 18.7789 16 18.7808ZM19.0938 9.49951H12.9062C11.8993 9.49951 10.9335 9.89954 10.2215 10.6116C9.5094 11.3236 9.10938 12.2894 9.10938 13.2964V19.4839C9.10938 20.4909 9.5094 21.4566 10.2215 22.1687C10.9335 22.8807 11.8993 23.2808 12.9062 23.2808H19.0938C20.1008 23.2808 21.0665 22.8807 21.7785 22.1687C22.4906 21.4566 22.8906 20.4909 22.8906 19.4839V13.2964C22.8906 12.2894 22.4906 11.3236 21.7785 10.6116C21.0665 9.89954 20.1008 9.49951 19.0938 9.49951ZM22.0469 19.4839C22.0469 20.2671 21.7358 21.0182 21.1819 21.572C20.6281 22.1259 19.877 22.437 19.0938 22.437H12.9062C12.123 22.437 11.3719 22.1259 10.8181 21.572C10.2643 21.0182 9.95312 20.2671 9.95312 19.4839V13.2964C9.95312 12.5132 10.2643 11.762 10.8181 11.2082C11.3719 10.6544 12.123 10.3433 12.9062 10.3433H19.0938C19.877 10.3433 20.6281 10.6544 21.1819 11.2082C21.7358 11.762 22.0469 12.5132 22.0469 13.2964V19.4839ZM20.3594 12.7339C20.3594 12.873 20.3181 13.0089 20.2409 13.1245C20.1636 13.2402 20.0538 13.3303 19.9254 13.3835C19.7969 13.4367 19.6555 13.4506 19.5191 13.4235C19.3827 13.3964 19.2574 13.3294 19.1591 13.2311C19.0607 13.1327 18.9938 13.0074 18.9666 12.8711C18.9395 12.7347 18.9534 12.5933 19.0067 12.4648C19.0598 12.3363 19.15 12.2265 19.2656 12.1493C19.3812 12.072 19.5172 12.0308 19.6562 12.0308C19.8427 12.0308 20.0216 12.1048 20.1534 12.2367C20.2853 12.3686 20.3594 12.5474 20.3594 12.7339Z" fill="white"/>
</g>
<defs>
<clipPath id="clip0_1957_8239">
<rect width="18" height="18" fill="white" transform="translate(7 7.39014)"/>
</clipPath>
</defs>
</svg>
