<svg width="51" height="51" viewBox="0 0 51 51" fill="none" xmlns="http://www.w3.org/2000/svg">
<path d="M25.65 5.08667C36.8759 5.08667 45.9625 14.1715 45.9625 25.3992C45.9625 36.625 36.8777 45.7117 25.65 45.7117C14.4241 45.7117 5.33752 36.6268 5.33752 25.3992C5.33752 14.1733 14.4224 5.08667 25.65 5.08667ZM25.65 1.18042C12.2743 1.18042 1.43127 12.0235 1.43127 25.3992C1.43127 38.7749 12.2743 49.6179 25.65 49.6179C39.0257 49.6179 49.8688 38.7749 49.8688 25.3992C49.8688 12.0235 39.0257 1.18042 25.65 1.18042ZM25.65 6.64917C15.2947 6.64917 6.90002 15.0438 6.90002 25.3992C6.90002 35.7545 15.2947 44.1492 25.65 44.1492C36.0054 44.1492 44.4 35.7545 44.4 25.3992C44.4 15.0438 36.0054 6.64917 25.65 6.64917ZM25.65 10.946C27.5916 10.946 29.1656 12.5201 29.1656 14.4617C29.1656 16.4033 27.5916 17.9773 25.65 17.9773C23.7084 17.9773 22.1344 16.4033 22.1344 14.4617C22.1344 12.5201 23.7084 10.946 25.65 10.946ZM37.1482 20.5186C34.3443 21.1806 31.7272 21.7635 29.1267 22.0623C29.2098 31.9278 30.3284 34.0791 31.5717 37.2596C31.9249 38.1639 31.4782 39.1833 30.5739 39.5365C29.6696 39.8897 28.6502 39.443 28.297 38.5387C27.4469 36.3602 26.6284 34.5704 26.1231 30.8679H25.1772C24.6726 34.5643 23.8555 36.357 23.0031 38.5387C22.6501 39.4425 21.6311 39.8899 20.7263 39.5365C19.822 39.1833 19.3753 38.1638 19.7285 37.2596C20.97 34.0818 22.0904 31.9333 22.1736 22.0623C19.5731 21.7636 16.956 21.1807 14.152 20.5186C13.3121 20.3203 12.792 19.4788 12.9904 18.6388C13.1887 17.7989 14.0301 17.2789 14.8701 17.4772C24.3121 19.7066 27.0072 19.7021 36.4302 17.4772C37.2699 17.279 38.1116 17.7989 38.31 18.6388C38.5081 19.4788 37.988 20.3204 37.1482 20.5186Z" fill="#2D2C2A" stroke="#2D2C2A" stroke-width="0.117188" stroke-dasharray="97.66 97.66"/>
</svg>
