<svg width="51" height="50" viewBox="0 0 51 50" fill="none" xmlns="http://www.w3.org/2000/svg">
<path fill-rule="evenodd" clip-rule="evenodd" d="M4.31641 12.5C4.31641 10.1989 6.18189 8.33337 8.48307 8.33337H41.8164C44.1176 8.33337 45.9831 10.1989 45.9831 12.5V37.5C45.9831 39.8012 44.1176 41.6667 41.8164 41.6667H8.48307C6.18189 41.6667 4.31641 39.8012 4.31641 37.5V12.5ZM9.85496 10.9322C8.98905 10.1745 7.67288 10.2622 6.91521 11.1282C6.15753 11.9941 6.24528 13.3102 7.11119 14.0679L23.7779 28.6512C24.5633 29.3385 25.7362 29.3385 26.5216 28.6512L43.1883 14.0679C44.0542 13.3102 44.1419 11.9941 43.3843 11.1282C42.6266 10.2622 41.3104 10.1745 40.4445 10.9322L25.1497 24.3151L9.85496 10.9322Z" fill="#2D2C2A"/>
</svg>
