<svg width="51" height="50" viewBox="0 0 51 50" fill="none" xmlns="http://www.w3.org/2000/svg">
<path d="M15.9229 34.9072C8.26329 27.2476 6.97301 17.9957 7.08668 12.1168C7.15386 8.64236 10.173 6.25 13.6481 6.25H15.0027C18.031 6.25 20.7542 8.0937 21.8789 10.9054C23.1796 14.1571 22.0247 17.8753 19.1108 19.818L17.9698 20.5786C17.9698 20.5786 17.9698 24.6725 22.0637 28.7664C26.1576 32.8603 30.2515 32.8603 30.2515 32.8603C31.4682 30.4269 34.1297 29.0716 36.8132 29.5188L38.2759 29.7626C41.9138 30.3689 44.5801 33.5164 44.5801 37.2044C44.5801 40.6664 42.1964 43.6739 38.7351 43.743C32.8574 43.8603 23.592 42.5763 15.9229 34.9072Z" fill="#2D2C2A"/>
</svg>
