<svg width="51" height="51" viewBox="0 0 51 51" fill="none" xmlns="http://www.w3.org/2000/svg">
<path d="M16.9967 46.2326C16.9967 46.9964 17.6217 47.6214 18.3856 47.6214H21.1633C21.9272 47.6214 22.5522 46.9964 22.5522 46.2326V30.9548H16.9967V46.2326ZM19.7745 22.6214H15.3561L11.4324 18.6892C10.3821 17.6388 8.98453 17.0659 7.50884 17.0659H5.88557C4.4012 17.0659 3.00363 17.6475 1.95328 18.6978C0.911614 19.7482 0.330017 21.1458 0.330017 22.6301L0.347378 30.9548L0.330017 44.8437C0.330017 46.3801 1.57134 47.6214 3.09911 47.6214C4.62689 47.6214 5.87689 46.3801 5.87689 44.8437L5.88557 36.1023C5.9637 36.1457 6.02446 36.2152 6.10259 36.2499L8.62863 39.9826V44.8437C8.62863 46.3801 9.86995 47.6214 11.4064 47.6214C12.9429 47.6214 14.1842 46.3801 14.1842 44.8437V39.9392C14.1842 39.0798 13.9845 38.2204 13.6026 37.4565L10.0262 32.1353V25.1388L11.8404 26.953C12.6304 27.743 13.672 28.177 14.7831 28.177H19.7745C21.3109 28.177 22.5522 26.9357 22.5522 25.3992C22.5522 23.8628 21.3109 22.6214 19.7745 22.6214ZM5.88557 14.2881C8.18592 14.2881 10.0522 12.4218 10.0522 10.1214C10.0522 7.8211 8.18592 5.95478 5.88557 5.95478C3.58523 5.95478 1.71891 7.8211 1.71891 10.1214C1.71891 12.4218 3.58523 14.2881 5.88557 14.2881ZM25.33 5.95478L28.0644 25.3211L25.3821 38.7412C25.0088 40.6162 26.5106 42.0659 28.1078 42.0659C29.4272 42.0659 30.5383 41.276 30.9116 39.427C30.9897 40.894 32.179 42.0659 33.6633 42.0659C35.1998 42.0659 36.4411 40.8246 36.4411 39.2881C36.4411 40.8246 37.6824 42.0659 39.2189 42.0659C40.7554 42.0659 41.9967 40.8246 41.9967 39.2881V3.177H25.33V5.95478ZM16.9967 5.95478V19.8437H22.5522V3.177H19.7745C18.238 3.177 16.9967 4.41832 16.9967 5.95478ZM47.5522 3.177H44.7745V46.2326C44.7745 46.9964 45.3995 47.6214 46.1633 47.6214H48.9411C49.705 47.6214 50.33 46.9964 50.33 46.2326V5.95478C50.33 4.41832 49.0887 3.177 47.5522 3.177Z" fill="#2D2C2A" stroke="#2D2C2A" stroke-width="0.104167" stroke-dasharray="86.81 86.81"/>
</svg>
