<svg width="32" height="33" viewBox="0 0 32 33" fill="none" xmlns="http://www.w3.org/2000/svg">
<rect y="0.390137" width="32" height="32" rx="16" fill="white" fill-opacity="0.05"/>
<rect x="0.5" y="0.890137" width="31" height="31" rx="15.5" stroke="white" stroke-opacity="0.15"/>
<g clip-path="url(#clip0_1957_8246)">
<path d="M24.2618 12.291C24.23 12.2144 24.1764 12.1489 24.1076 12.1026C24.0389 12.0564 23.958 12.0314 23.8751 12.0308H21.6532C21.3786 11.5264 20.9746 11.1042 20.4828 10.8076C19.991 10.5111 19.4291 10.3508 18.8548 10.3433C17.9919 10.3395 17.1627 10.6778 16.5487 11.2839C15.9346 11.8901 15.5857 12.7148 15.5782 13.5777V14.1894C12.597 13.4792 10.136 11.0535 10.1079 11.0324C10.0537 10.9788 9.98603 10.941 9.91205 10.9229C9.83808 10.9047 9.76057 10.9069 9.68775 10.9293C9.61494 10.9516 9.54953 10.9933 9.49847 11.0498C9.44742 11.1063 9.41261 11.1756 9.39776 11.2503C8.78605 14.5972 9.79151 16.8332 10.7407 18.1199C11.2442 18.8088 11.8626 19.4058 12.5689 19.8847C11.479 21.2066 9.68605 21.8957 9.66495 21.9026C9.60505 21.9248 9.55104 21.9603 9.50714 22.0067C9.46323 22.053 9.43061 22.1088 9.41183 22.1699C9.39188 22.2294 9.38594 22.2927 9.39447 22.3549C9.40301 22.4171 9.42579 22.4765 9.46105 22.5284C9.53136 22.6339 10.2204 23.562 12.6251 23.562C17.5259 23.562 21.6251 19.7722 22.0188 14.9066L24.1704 12.748C24.2314 12.6908 24.273 12.6161 24.2894 12.5341C24.3058 12.4522 24.2961 12.3672 24.2618 12.291ZM21.3087 14.4214C21.2356 14.4944 21.1928 14.5924 21.1892 14.6956C20.9009 19.1957 17.1392 22.7183 12.6251 22.7183C11.6478 22.7183 11.022 22.5495 10.6493 22.3808C11.4439 21.98 12.7446 21.1925 13.5392 19.9972C13.5708 19.9476 13.5921 19.8922 13.6018 19.8342C13.6115 19.7762 13.6093 19.7168 13.5954 19.6597C13.5804 19.6013 13.5533 19.5466 13.5157 19.4993C13.4781 19.4521 13.431 19.4133 13.3775 19.3855C13.3634 19.3855 12.3087 18.837 11.3946 17.5855C10.3048 16.0949 9.87589 14.2738 10.115 12.1714C11.1415 13.0433 13.3564 14.6886 15.9298 15.1175C15.9904 15.129 16.0527 15.1269 16.1123 15.1112C16.172 15.0956 16.2274 15.0669 16.2746 15.0272C16.3217 14.9874 16.3594 14.9377 16.3849 14.8815C16.4104 14.8254 16.4231 14.7643 16.4219 14.7027V13.5777C16.4276 12.9405 16.685 12.3314 17.1383 11.8835C17.5915 11.4355 18.2035 11.1852 18.8407 11.187C19.3011 11.1937 19.75 11.3324 20.1339 11.5867C20.5178 11.8409 20.8206 12.2001 21.0063 12.6214C21.0384 12.6972 21.0923 12.7617 21.1612 12.8068C21.23 12.8519 21.3107 12.8755 21.3931 12.8745H22.8556L21.3087 14.4214Z" fill="white"/>
</g>
<defs>
<clipPath id="clip0_1957_8246">
<rect width="18" height="18" fill="white" transform="translate(7 7.39014)"/>
</clipPath>
</defs>
</svg>
