<svg width="52" height="51" viewBox="0 0 52 51" fill="none" xmlns="http://www.w3.org/2000/svg">
<path d="M25.98 15.6769C25.06 15.6912 24.1468 15.8374 23.2682 16.1109C23.6746 16.8256 23.891 17.6325 23.8967 18.4546C23.8967 19.093 23.7709 19.7251 23.5266 20.3149C23.2824 20.9047 22.9243 21.4406 22.4729 21.892C22.0215 22.3434 21.4856 22.7014 20.8958 22.9457C20.3061 23.19 19.6739 23.3158 19.0356 23.3158C18.2134 23.3101 17.4065 23.0937 16.6918 22.6873C16.128 24.6428 16.1937 26.7262 16.8797 28.6424C17.5656 30.5585 18.8371 32.2102 20.514 33.3635C22.1909 34.5169 24.1881 35.1134 26.2229 35.0686C28.2576 35.0237 30.2266 34.3398 31.8511 33.1138C33.4755 31.8877 34.673 30.1816 35.274 28.2371C35.8749 26.2926 35.8488 24.2083 35.1994 22.2795C34.5499 20.3507 33.3101 18.6751 31.6554 17.4901C30.0008 16.3051 28.0152 15.6707 25.98 15.6769ZM50.6779 24.1317C45.9705 14.9468 36.651 8.73242 25.98 8.73242C15.309 8.73242 5.98695 14.9512 1.28209 24.1326C1.08352 24.5254 0.980057 24.9594 0.980057 25.3995C0.980057 25.8397 1.08352 26.2736 1.28209 26.6664C5.98956 35.8513 15.309 42.0658 25.98 42.0658C36.651 42.0658 45.9731 35.847 50.6779 26.6656C50.8765 26.2728 50.98 25.8388 50.98 25.3987C50.98 24.9585 50.8765 24.5245 50.6779 24.1317ZM25.98 37.8991C17.4166 37.8991 9.56595 33.1248 5.32636 25.3991C9.56595 17.6734 17.4158 12.8991 25.98 12.8991C34.5442 12.8991 42.3941 17.6734 46.6337 25.3991C42.3949 33.1248 34.5442 37.8991 25.98 37.8991Z" fill="#2D2C2A" stroke="#2D2C2A" stroke-width="0.104167" stroke-dasharray="86.81 86.81"/>
</svg>
